/vscmnt/brussel_pixiu_data/_data_brussel/112/vsc11236/PredSimResults/SUBJ09mtu3D/worker10.mot
version=1
nRows=4
nColumns=50
inDegrees=yes
endheader
                time	         pelvis_tilt	         pelvis_list	     pelvis_rotation	           pelvis_tx	           pelvis_ty	           pelvis_tz	       hip_flexion_r	     hip_adduction_r	      hip_rotation_r	        knee_angle_r	       ankle_angle_r	         mtp_angle_r	       hip_flexion_l	     hip_adduction_l	      hip_rotation_l	        knee_angle_l	       ankle_angle_l	         mtp_angle_l	    lumbar_extension	      lumbar_bending	     lumbar_rotation	 ercspn_r/activation	 intobl_r/activation	 extobl_r/activation	    abd_r/activation	    add_r/activation	hamstrings_r/activation	bifemsh_r/activation	glut_max_r/activation	iliopsoas_r/activation	rect_fem_r/activation	  vasti_r/activation	gastroc_r/activation	 soleus_r/activation	tib_ant_r/activation	 ercspn_l/activation	 intobl_l/activation	 extobl_l/activation	    abd_l/activation	    add_l/activation	hamstrings_l/activation	bifemsh_l/activation	glut_max_l/activation	iliopsoas_l/activation	rect_fem_l/activation	  vasti_l/activation	gastroc_l/activation	 soleus_l/activation	tib_ant_l/activation	
          1.20542286	         -3.55318032	         -2.42104074	          7.82146818	          1.49472434	          0.99289105	         -0.00398083	         26.62242312	          0.43638787	         -4.33041034	         -4.35921648	          6.27809219	          0.25188257	        -12.69737212	         -3.66131075	          0.88205127	        -12.40039728	          7.00253720	         33.26563120	        -13.71971159	          0.94365669	         -2.96877231	          0.01806507	          0.15636282	          0.04337852	          0.03543093	          0.14304339	          0.02583768	          0.07901669	          0.08142179	          0.07653374	          0.02999479	          0.01432534	          0.01731689	          0.01000019	          0.23005686	          0.01000076	          0.01000021	          0.01000081	          0.02079857	          0.02691191	          0.01517482	          0.20164682	          0.01257025	          0.01935314	          0.01000041	          0.01000013	          0.28075020	          0.24572228	          0.01000002	
          1.21747709	         -3.52463465	         -2.42414838	          7.68275676	          1.51404848	          0.99074830	         -0.00348750	         26.25953450	          0.65150554	         -4.15509003	         -5.69428162	          5.85922918	          0.21122108	        -13.34584572	         -3.77447751	          0.35798052	        -13.30867253	          6.03319836	         34.84834643	        -13.27383479	          1.26802512	         -2.99557252	          0.01504300	          0.13020440	          0.03612157	          0.11272132	          0.13002247	          0.04172052	          0.06579810	          0.09302130	          0.06373012	          0.02497687	          0.01192885	          0.01442225	          0.01200913	          0.26725629	          0.01542340	          0.01000017	          0.01000086	          0.01731911	          0.02276123	          0.02194398	          0.16791380	          0.01046743	          0.06173059	          0.01000027	          0.01000014	          0.23378272	          0.22359943	          0.01000002	
          1.22953132	         -3.48679633	         -2.42595273	          7.50510357	          1.53341149	          0.98892588	         -0.00295909	         25.87388268	          0.86260064	         -3.98205831	         -6.99980583	          5.30626665	          0.20962522	        -13.75373383	         -3.87703676	         -0.18691490	        -14.65635061	          4.94999041	         36.36023448	        -12.83166151	          1.60118775	         -3.00400344	          0.01252661	          0.10842204	          0.03007866	          0.17095114	          0.13910966	          0.04279999	          0.05479073	          0.12543221	          0.05306847	          0.02079842	          0.01000009	          0.01200955	          0.01000011	          0.30497548	          0.03053236	          0.01000011	          0.01000117	          0.01442174	          0.02690243	          0.01953808	          0.13982332	          0.01000015	          0.10300611	          0.01000028	          0.01000016	          0.19467233	          0.19582199	          0.01000002	
          1.24158554	         -3.44294719	         -2.42473597	          7.28910790	          1.55247994	          0.98767277	         -0.00239573	         25.58190381	          1.06821164	         -3.83819163	         -8.43350899	          4.69443157	          0.17640291	        -13.81114126	         -3.96909071	         -0.74212008	        -16.58669727	          3.75067986	         37.66080667	        -12.43032110	          1.94235606	         -2.98947483	          0.01043353	          0.09028372	          0.02504669	          0.20972991	          0.18210834	          0.04144176	          0.04562473	          0.13359563	          0.04419045	          0.01731900	          0.06623603	          0.01000071	          0.01000014	          0.33101554	          0.05075072	          0.01000018	          0.01000048	          0.01200908	          0.06553424	          0.01627118	          0.11643230	          0.01000014	          0.15759335	          0.01000023	          0.01000010	          0.16210486	          0.16306225	          0.01000005	
